<svg width="375" height="438" viewBox="0 0 375 438" fill="none" xmlns="http://www.w3.org/2000/svg">
<path d="M229.972 201.679C229.972 201.679 228.541 198.955 225.678 198.955C224.493 198.955 223.072 199.417 221.406 200.722C215.703 205.181 223.632 216.991 228.697 214.761C228.697 214.761 230.922 225.93 244.866 223.7C244.866 223.7 246.454 237.098 262.299 226.245C262.299 226.245 275.617 227.843 270.227 212.521C270.227 212.521 269.199 211.328 267.689 211.564C267.689 211.564 264.681 206.622 260.32 206.464C255.959 206.307 252.47 211.643 252.47 211.643C252.47 211.643 251.844 207.185 247.718 205.744C247.718 205.744 247.953 202.31 243.916 198.966C239.879 195.611 236.39 198.482 236.39 198.482C236.39 198.482 235.116 195.048 231.873 195.048C228.619 195.048 227.042 196.568 226.796 198.561" stroke="#201F1F" stroke-width="2" stroke-linecap="round" stroke-linejoin="round"/>
<path d="M247.327 212.769C247.327 212.769 252.157 209.099 257.145 215.313" stroke="#201F1F" stroke-width="2" stroke-linecap="round" stroke-linejoin="round"/>
<path d="M294.626 206.228C294.626 206.228 295.979 205.901 296.694 203.593C297.645 200.486 294.078 199.844 294.078 199.844C294.078 199.844 294.626 197.21 290.667 196.332C286.709 195.454 285.121 198.246 285.121 198.246C285.121 198.246 282.348 195.848 279.653 198.561C277.193 201.038 277.517 202.951 279.094 205.507C280.682 208.063 279.81 210.269 282.035 211.812C285.602 214.277 288.453 212.127 290.511 212.206C292.568 212.285 295.185 211.328 294.95 208.614C294.883 207.849 294.637 207.094 294.257 206.442C293.317 204.775 291.595 203.683 290.119 204.302" stroke="#201F1F" stroke-width="2" stroke-linecap="round" stroke-linejoin="round"/>
<path d="M320.781 178.544C320.781 178.544 319.361 178.116 317.706 178.431C316.476 178.656 315.134 179.287 314.128 180.773C311.746 184.285 312.696 187.798 312.696 187.798C312.696 187.798 308.738 187.156 309.208 191.783C309.688 196.41 316.185 198.966 322.526 198.167C328.866 197.367 333.775 191.468 333.775 191.468C333.775 191.468 337.744 195.926 343.76 194.181C349.787 192.425 350.581 187.956 350.581 187.956C350.581 187.956 359.136 190.984 362.625 185.4C366.113 179.816 365.319 175.662 365.319 175.662C365.319 175.662 373.236 175.031 373.404 168.49C373.561 161.949 369.434 159.067 369.434 159.067" stroke="#201F1F" stroke-width="2" stroke-linecap="round" stroke-linejoin="round"/>
<path d="M368.171 163.221C368.171 163.221 368.831 161.578 368.864 159.056C368.898 155.757 367.88 150.984 362.938 146.469C355.535 139.692 350.984 140.739 349.788 141.212C349.575 141.29 349.463 141.358 349.463 141.358" stroke="#201F1F" stroke-width="2" stroke-linecap="round" stroke-linejoin="round"/>
<path d="M357.078 157.48C357.078 157.48 359.93 154.44 356.597 150.139C353.265 145.827 351.532 147.099 351.532 147.099C351.532 147.099 351.364 142.315 347.093 141.358C342.81 140.401 341.065 142.956 341.065 142.956" stroke="#201F1F" stroke-width="2" stroke-linecap="round" stroke-linejoin="round"/>
<path d="M357.872 167.049C357.872 167.049 353.433 161.465 347.249 166.092C347.249 166.092 343.761 158.11 338.214 161.949" stroke="#201F1F" stroke-width="2" stroke-linecap="round" stroke-linejoin="round"/>
<path d="M344.397 177.902C344.397 177.902 341.859 176.146 340.439 178.217C340.439 178.217 334.255 173.117 331.08 181.088" stroke="#201F1F" stroke-width="2" stroke-linecap="round" stroke-linejoin="round"/>
<path d="M334.255 153.483C334.255 153.483 329.659 146.784 322.369 151.895" stroke="#201F1F" stroke-width="2" stroke-linecap="round" stroke-linejoin="round"/>
<path d="M326.014 167.207C326.014 167.207 322 165.844 319.171 167.68C318.265 168.265 317.471 169.177 316.979 170.562C315.548 174.547 317.617 177.902 317.617 177.902" stroke="#201F1F" stroke-width="2" stroke-linecap="round" stroke-linejoin="round"/>
<path d="M346.769 134.659C345.27 132.791 343.056 131.113 339.802 130.505C339.802 130.505 339.623 124.392 333.462 123.806C331.192 123.593 329.783 124.144 328.911 124.831C327.837 125.653 327.591 126.677 327.591 126.677" stroke="#201F1F" stroke-width="2" stroke-linecap="round" stroke-linejoin="round"/>
<path d="M349.787 141.2C349.787 141.2 349.239 137.699 346.779 134.659" stroke="#201F1F" stroke-width="2" stroke-linecap="round" stroke-linejoin="round"/>
<path d="M331.08 130.989C331.08 130.989 329.458 127.567 326.506 126.711C325.142 126.317 323.487 126.475 321.575 127.792C315.548 131.946 319.193 139.286 319.193 139.286C319.193 139.286 313.803 139.602 317.929 149.655C317.929 149.655 311.298 151.152 312.383 159.236C313.155 164.955 318.824 167.533 319.171 167.68C319.182 167.691 319.193 167.691 319.193 167.691" stroke="#201F1F" stroke-width="2" stroke-linecap="round" stroke-linejoin="round"/>
<path d="M328.865 124.763C328.865 124.763 324.27 123.165 325.377 119.663C325.377 119.663 317.929 121.251 316.822 115.036C316.822 115.036 312.696 119.494 304.612 111.524C296.538 103.542 299.859 97.9576 306.512 99.2297C306.512 99.2297 303.504 92.2159 311.589 93.1728C311.589 93.1728 310.572 87.1497 318.88 87.904C320.255 88.0391 321.362 88.4106 322.257 88.906C324.762 90.2795 325.533 92.5311 325.533 92.5311" stroke="#201F1F" stroke-width="2" stroke-linecap="round" stroke-linejoin="round"/>
<path d="M346.769 134.659C346.769 134.659 346.769 134.659 346.78 134.659C347.16 134.749 353.657 136.112 355.96 131.304C358.342 126.362 355.647 123.165 355.647 123.165C355.647 123.165 361.238 118.887 356.441 112.638C356.094 112.177 355.714 111.805 355.334 111.512C352.818 109.52 349.944 110.724 349.944 110.724" stroke="#201F1F" stroke-width="2" stroke-linecap="round" stroke-linejoin="round"/>
<path d="M349.161 102.573C349.284 102.258 351.274 97.0682 346.455 93.4881C342.809 90.7749 339.321 91.5742 338.851 91.8894C338.37 92.2159 340.909 83.761 332.03 82.6352C323.163 81.5206 322.369 88.7034 322.369 88.7034" stroke="#201F1F" stroke-width="2" stroke-linecap="round" stroke-linejoin="round"/>
<path d="M355.334 111.524C355.334 111.524 355.334 111.524 355.334 111.512C355.445 111.242 357.067 107.066 355.009 104.656C352.236 101.403 349.318 102.517 349.161 102.574C349.15 102.585 349.15 102.585 349.15 102.585" stroke="#201F1F" stroke-width="2" stroke-linecap="round" stroke-linejoin="round"/>
<path d="M321.419 103.069C321.419 103.069 325.221 103.868 325.858 109.61" stroke="#201F1F" stroke-width="2" stroke-linecap="round" stroke-linejoin="round"/>
<path d="M341.547 115.824C341.547 115.824 342.967 111.366 339.322 108.811C335.676 106.255 333.306 109.126 333.306 109.126C333.306 109.126 333.306 103.384 329.504 103.069C325.691 102.742 324.583 105.456 324.583 105.456" stroke="#201F1F" stroke-width="2" stroke-linecap="round" stroke-linejoin="round"/>
<path d="M348.356 124.448C348.356 124.448 348.994 120.778 343.123 120.463" stroke="#201F1F" stroke-width="2" stroke-linecap="round" stroke-linejoin="round"/>
<path d="M289.561 49.446C289.561 49.446 289.549 49.4573 289.527 49.4911C289.225 49.9301 286.933 53.499 292.569 56.7864C298.596 60.2989 300.34 58.2274 300.34 58.2274C300.34 58.2274 299.703 62.3704 303.192 64.1267C306.68 65.883 309.051 64.4532 309.051 64.4532C309.051 64.4532 308.693 75.1597 317.449 72.9081C323.085 71.4558 322.738 66.1757 320.043 63.6314C319.171 62.7983 318.064 62.2466 316.823 62.2128" stroke="#201F1F" stroke-width="2" stroke-linecap="round" stroke-linejoin="round"/>
<path d="M293.675 37.8051C293.675 37.8051 292.512 36.274 289.829 34.7879C288.431 33.9998 286.608 33.2342 284.327 32.6939C279.575 31.5793 279.575 36.364 279.575 36.364C279.575 36.364 274.341 37.1634 277.036 43.0627C280.279 50.1666 287.436 51.8328 289.527 49.4911" stroke="#201F1F" stroke-width="2" stroke-linecap="round" stroke-linejoin="round"/>
<path d="M290.668 34.6076C290.668 34.6076 290.355 28.8659 296.538 30.6222C302.711 32.3785 304.779 39.0771 304.779 39.0771C304.779 39.0771 312.696 36.6791 312.696 47.532C312.696 47.532 319.037 47.2168 320.938 53.285C322.839 59.3419 320.781 62.8544 320.311 63.3273" stroke="#201F1F" stroke-width="2" stroke-linecap="round" stroke-linejoin="round"/>
<path d="M296.057 44.0309C296.057 44.0309 297.488 41.3177 300.81 42.4323C304.142 43.5468 304.298 46.1025 304.298 46.1025" stroke="#201F1F" stroke-width="2" stroke-linecap="round" stroke-linejoin="round"/>
<path d="M217.929 8.60129C217.929 8.60129 214.753 10.9993 218.086 14.6695C221.407 18.3396 226.002 16.4257 226.002 16.4257C226.002 16.4257 229.022 20.5688 233.461 19.6118C237.889 18.6549 236.782 14.6695 236.782 14.6695C236.782 14.6695 240.114 11.4721 235.988 8.28606C231.873 5.08874 228.865 7.95957 228.865 7.95957C228.865 7.95957 230.129 2.85961 222.525 1.26095C219.26 0.574201 216.9 2.55564 216.498 4.13179C215.894 6.50727 217.929 8.60129 217.929 8.60129Z" stroke="#201F1F" stroke-width="2" stroke-linecap="round" stroke-linejoin="round"/>
<path d="M225.375 7.32897C225.375 7.32897 228.383 7.1601 230.284 9.87333" stroke="#201F1F" stroke-width="2" stroke-linecap="round" stroke-linejoin="round"/>
<path d="M169.107 163.379C169.107 163.379 168.794 154.766 158.965 158.279C158.965 158.279 155.476 151.254 151.037 151.254C146.609 151.254 145.658 155.723 146.922 158.279C146.922 158.279 143.433 164.021 147.559 167.848C151.674 171.676 153.899 171.361 153.899 171.361C153.899 171.361 155.163 179.017 163.404 180.93C171.645 182.844 171.645 180.93 171.645 180.93C171.645 180.93 175.771 186.357 182.1 184.128C188.441 181.887 189.078 169.447 177.985 167.848C177.985 167.848 175.134 161.15 169.107 163.379Z" stroke="#201F1F" stroke-width="2" stroke-linecap="round" stroke-linejoin="round"/>
<path d="M162.767 163.694C162.767 163.694 165.305 161.465 168.156 163.694C170.471 165.507 170.695 169.121 170.695 169.121" stroke="#201F1F" stroke-width="2" stroke-linecap="round" stroke-linejoin="round"/>
<path d="M158.014 125.405C158.014 125.405 158.025 125.405 158.036 125.394C158.506 125.293 165.584 123.84 164.667 134.344C164.667 134.344 172.596 140.086 167.53 145.186C163.56 149.182 158.014 141.684 158.014 141.684C158.014 141.684 153.262 142.957 148.822 138.172C144.383 133.387 143.757 130.19 143.757 130.19C143.757 130.19 134.241 135.301 133.928 116.793C133.928 116.793 125.687 118.706 123.148 111.681C121.706 107.685 121.885 107.854 120.61 106.255C119.346 104.656 118.396 97.6424 122.511 95.0868" stroke="#201F1F" stroke-width="2" stroke-linecap="round" stroke-linejoin="round"/>
<path d="M160.452 114.541C163.001 119.765 158.406 124.977 158.037 125.394" stroke="#201F1F" stroke-width="2" stroke-linecap="round" stroke-linejoin="round"/>
<path d="M143.12 99.2297C143.12 99.2297 151.048 95.4019 149.773 109.767C149.773 109.767 156.114 107.854 159.916 113.595C160.128 113.91 160.307 114.226 160.441 114.541" stroke="#201F1F" stroke-width="2" stroke-linecap="round" stroke-linejoin="round"/>
<path d="M130.127 83.5921C130.127 83.5921 130.127 83.5921 130.116 83.5808C130.004 83.2769 127.767 77.5239 134.555 77.22C134.98 77.1974 135.36 77.2087 135.718 77.2425C139.878 77.6703 139.318 81.6782 139.318 81.6782" stroke="#201F1F" stroke-width="2" stroke-linecap="round" stroke-linejoin="round"/>
<path d="M124.412 96.6853C124.412 96.6853 123.775 96.0436 123.216 94.9177C122.411 93.2853 121.773 90.6284 123.462 87.4311C126.246 82.1285 129.947 83.5245 130.115 83.5808" stroke="#201F1F" stroke-width="2" stroke-linecap="round" stroke-linejoin="round"/>
<path d="M135.829 76.5782C135.829 76.5782 135.829 76.5782 135.817 76.5669C135.672 76.1391 132.865 67.7743 142.169 65.7253C155.162 62.8544 154.849 75.2947 154.849 75.2947" stroke="#201F1F" stroke-width="2" stroke-linecap="round" stroke-linejoin="round"/>
<path d="M151.674 78.177C151.674 78.177 152.681 76.1618 154.917 75.5538C155.767 75.3061 156.796 75.2724 158.015 75.6214C162.454 76.8935 162.454 82.0047 162.454 82.0047C162.454 82.0047 171.645 77.8505 173.546 88.7034C174.855 96.1675 171.221 99.0947 168.816 100.209C167.732 100.705 166.893 100.828 166.893 100.828" stroke="#201F1F" stroke-width="2" stroke-linecap="round" stroke-linejoin="round"/>
<path d="M160.239 114.552C160.239 114.552 160.306 114.552 160.441 114.541C160.441 114.541 160.441 114.541 160.452 114.541C161.704 114.451 168.369 113.742 170.381 109.126C172.484 104.273 169.151 100.558 168.816 100.209C168.805 100.198 168.794 100.187 168.794 100.187" stroke="#201F1F" stroke-width="2" stroke-linecap="round" stroke-linejoin="round"/>
<path d="M159.603 97.3158C159.603 97.3158 166.569 97.0006 164.993 105.613" stroke="#201F1F" stroke-width="2" stroke-linecap="round" stroke-linejoin="round"/>
<path d="M176.085 24.2388C176.085 24.2388 183.052 20.411 188.442 25.8375" stroke="#201F1F" stroke-width="2" stroke-linecap="round" stroke-linejoin="round"/>
<path d="M181.474 16.5834C181.474 16.5834 181.474 11.7987 186.54 11.4722C191.616 11.157 194.781 15.3 194.781 15.3C194.781 15.3 198.583 12.7556 201.758 16.8986C204.923 21.0529 201.758 24.239 201.758 24.239C201.758 24.239 204.834 31.7595 197.957 33.4932C194.155 34.4502 191.929 31.5793 191.929 31.5793C191.929 31.5793 191.929 36.6905 187.49 38.9197C183.051 41.1488 179.249 37.6475 179.249 37.6475C179.249 37.6475 174.81 42.1057 170.057 41.7905C165.305 41.4753 164.354 38.2779 164.354 38.2779C164.354 38.2779 155.8 40.8336 153.575 31.2641C151.361 21.6834 159.278 21.0529 159.278 21.0529C159.278 21.0529 160.239 14.9848 164.667 14.0278C169.107 13.0709 171.332 15.3 171.332 15.3C171.332 15.3 178.008 12.1364 181.306 16.7073C182.201 17.9457 182.85 19.747 183.051 22.3251" stroke="#201F1F" stroke-width="2" stroke-linecap="round" stroke-linejoin="round"/>
<path d="M195.732 133.061L193.831 138.802" stroke="#201F1F" stroke-width="2" stroke-linecap="round" stroke-linejoin="round"/>
<path d="M189.716 140.716L184.326 140.401" stroke="#201F1F" stroke-width="2" stroke-linecap="round" stroke-linejoin="round"/>
<path d="M191.617 144.229L190.342 147.099" stroke="#201F1F" stroke-width="2" stroke-linecap="round" stroke-linejoin="round"/>
<path d="M197.632 141.043L201.445 142.315" stroke="#201F1F" stroke-width="2" stroke-linecap="round" stroke-linejoin="round"/>
<path d="M210.314 68.5961L209.363 71.7934" stroke="#201F1F" stroke-width="2" stroke-linecap="round" stroke-linejoin="round"/>
<path d="M210 65.4101L206.511 64.7684" stroke="#201F1F" stroke-width="2" stroke-linecap="round" stroke-linejoin="round"/>
<path d="M213.165 63.1699L214.44 57.7434" stroke="#201F1F" stroke-width="2" stroke-linecap="round" stroke-linejoin="round"/>
<path d="M215.704 65.4103L219.83 65.7255" stroke="#201F1F" stroke-width="2" stroke-linecap="round" stroke-linejoin="round"/>
<path d="M271.177 58.0699C271.166 58.0925 271.166 58.1262 271.155 58.1488C270.942 59.0944 268.952 68.8103 276.567 71.4672C276.567 71.4672 267.051 72.7506 264.837 81.0479C264.837 81.0479 265.922 69.0129 260.263 67.054C260.241 67.054 260.219 67.0427 260.207 67.0427C260.163 67.0202 260.129 67.0089 260.084 66.9977" stroke="#201F1F" stroke-width="2" stroke-linecap="round" stroke-linejoin="round"/>
<path d="M260.264 67.0538C261.438 67.4028 268.248 68.9002 271.156 58.1486" stroke="#201F1F" stroke-width="2" stroke-linecap="round" stroke-linejoin="round"/>
<path d="M280.514 159.484C279.899 162.636 279.318 169.56 285.121 171.991C285.121 171.991 277.484 171.248 275.93 179.016C275.93 179.016 275.93 168.85 271.211 167.218C271.188 167.207 271.177 167.207 271.177 167.207" stroke="#201F1F" stroke-width="2" stroke-linecap="round" stroke-linejoin="round"/>
<path d="M280.883 157.907C280.883 157.919 280.883 157.919 280.872 157.93C280.838 158.065 280.671 158.628 280.514 159.461" stroke="#201F1F" stroke-width="2" stroke-linecap="round" stroke-linejoin="round"/>
<path d="M280.514 159.461C280.648 158.977 280.771 158.47 280.872 157.93" stroke="#201F1F" stroke-width="2" stroke-linecap="round" stroke-linejoin="round"/>
<path d="M280.514 159.461C280.514 159.473 280.514 159.485 280.514 159.485" stroke="#201F1F" stroke-width="2" stroke-linecap="round" stroke-linejoin="round"/>
<path d="M271.21 167.218C271.702 167.319 278.042 168.49 280.513 159.484" stroke="#201F1F" stroke-width="2" stroke-linecap="round" stroke-linejoin="round"/>
<path d="M200.954 104.06C197.018 107.561 196.582 113.674 199.982 117.716L240.304 165.653C243.704 169.684 249.72 170.213 253.756 166.824L285.111 140.469C289.148 137.091 289.606 131.124 286.14 127.15L243.849 78.6611C240.383 74.687 234.389 74.3154 230.453 77.8167L200.954 104.06Z" stroke="#201F1F" stroke-width="2" stroke-linecap="round" stroke-linejoin="round"/>
<path d="M86.7847 379.908C87.299 382.925 87.0195 384.535 87.0195 384.535L75.6361 398.664L75.5355 398.574C75.5355 398.574 74.0259 391.661 69.9668 383.004C68.9492 380.842 67.7863 378.579 66.4333 376.283C66.2655 376.001 66.0978 375.72 65.9301 375.438C60.7639 366.882 55.7096 362.908 52.1537 361.062C49.0786 359.474 47.1218 359.452 47.1218 359.452L47.0547 359.362L60.3837 349.747C60.3837 349.747 62.8773 348.745 66.9253 350.614C70.4364 352.224 75.1106 355.995 80.355 364.428C84.5706 371.216 86.192 376.474 86.7847 379.908Z" fill="#201F1F"/>
<path d="M154.212 299.963L159.256 287.343L199.455 186.818C199.109 187.719 200.64 189.149 202.866 190.005C205.024 190.838 207.059 190.826 207.473 189.993L175.447 275.071L171.958 284.326L172.283 284.54C169.096 289.549 161.168 295.764 154.525 300.425L154.212 299.963Z" fill="#201F1F"/>
<path d="M1.11865 392.517L38.0195 365.891L47.0547 359.362L60.3837 349.747C60.3837 349.747 62.8773 348.745 66.9253 350.614C70.4364 352.224 75.1105 355.995 80.3549 364.428C84.5706 371.216 86.192 376.474 86.7846 379.908C87.299 382.925 87.0195 384.535 87.0195 384.535L75.6361 398.664L44.8518 436.874" stroke="#201F1F" stroke-width="2" stroke-linecap="round" stroke-linejoin="round"/>
<path d="M47.1211 359.452C47.1211 359.452 49.078 359.474 52.153 361.062C55.7089 362.908 60.7632 366.882 65.9294 375.438C66.0971 375.72 66.2648 376.001 66.4326 376.283C67.7856 378.579 68.9485 380.842 69.9661 383.004C74.0252 391.661 75.5348 398.574 75.5348 398.574" stroke="#201F1F" stroke-width="2" stroke-linecap="round" stroke-linejoin="round"/>
<path d="M9.35938 393.474L16.0127 393.159L18.5511 388.847L20.6086 395.23L25.674 396.502L20.1277 399.216L19.9712 404.484L16.0127 399.373L11.2603 401.771L13.4744 396.818L9.35938 393.474Z" fill="white" stroke="#201F1F" stroke-width="2" stroke-linecap="round" stroke-linejoin="round"/>
<path d="M31.8579 389.804L35.0336 387.89L33.1327 382.464L39.1486 386.134L44.3819 382.936L42.9505 388.52L46.9202 393.474L40.893 392.517L37.7285 398.574L35.9841 390.918L31.8579 389.804Z" fill="white" stroke="#201F1F" stroke-width="2" stroke-linecap="round" stroke-linejoin="round"/>
<path d="M29.1641 406.398L34.7104 409.584L40.1002 407.04L38.0427 413.255L42.3254 417.251L35.6609 417.094L35.0347 422.036L31.3894 416.294L26.4692 415.653L30.9085 411.667L29.1641 406.398Z" fill="white" stroke="#201F1F" stroke-width="2" stroke-linecap="round" stroke-linejoin="round"/>
<path d="M55.0043 398.574L53.7295 405.599L50.2407 407.828L53.7295 408.796L53.4164 416.137L58.0123 409.584L63.8717 412.466L61.0203 407.198L65.303 402.728L58.9628 404.169L55.0043 398.574Z" fill="white" stroke="#201F1F" stroke-width="2" stroke-linecap="round" stroke-linejoin="round"/>
<path d="M37.9521 365.869L38.0192 365.891L44.2253 367.625L42.3243 373.524L47.8707 368.424L53.417 370.654L49.6151 364.912L52.1422 361.084" fill="white"/>
<path d="M37.9521 365.869L38.0192 365.891L44.2253 367.625L42.3243 373.524L47.8707 368.424L53.417 370.654L49.6151 364.912L52.1422 361.084" stroke="#201F1F" stroke-width="2" stroke-linecap="round" stroke-linejoin="round"/>
<path d="M66.2542 376.395L63.0785 378.636L58.3261 376.564L59.7575 381.191L55.1616 385.177L61.815 385.019L64.6664 389.804L65.9412 383.105H69.7431" fill="white"/>
<path d="M66.2542 376.395L63.0785 378.636L58.3261 376.564L59.7575 381.191L55.1616 385.177L61.815 385.019L64.6664 389.804L65.9412 383.105H69.7431" stroke="#201F1F" stroke-width="2" stroke-linecap="round" stroke-linejoin="round"/>
<path d="M67.3617 378.309L66.8921 379.75L68.6253 380.549" stroke="#201F1F" stroke-width="2" stroke-linecap="round" stroke-linejoin="round"/>
<path d="M66.9932 350.479C66.9932 350.479 75.9165 343.364 84.1577 335.393C92.3989 327.411 114.271 309.859 122.837 303.802C131.089 297.948 147.023 288.829 159.245 287.332" stroke="#201F1F" stroke-width="2" stroke-linecap="round" stroke-linejoin="round"/>
<path d="M144.07 307.304C144.07 307.304 148.823 304.433 154.526 300.425C161.168 295.764 169.096 289.55 172.283 284.54C172.674 283.92 172.998 283.312 173.233 282.738" stroke="#201F1F" stroke-width="2" stroke-linecap="round" stroke-linejoin="round"/>
<path d="M86.7402 379.975C86.7402 379.975 86.7626 379.953 86.785 379.908C87.2882 379.21 91.3473 373.581 94.6236 372.095C98.1124 370.496 119.66 361.557 126.314 359.001C132.978 356.457 151.037 352.303 158.328 344.332C165.619 336.35 173.077 328.368 173.077 328.368C173.077 328.368 176.879 323.583 175.604 318.641" stroke="#201F1F" stroke-width="2" stroke-linecap="round" stroke-linejoin="round"/>
<path d="M158.965 333.794L173.703 319.913C173.703 319.913 174.284 319.327 174.944 318.314C176.141 316.502 177.561 313.349 176.241 309.859" stroke="#201F1F" stroke-width="2" stroke-linecap="round" stroke-linejoin="round"/>
<path d="M162.611 322.468L174.341 311.131C174.341 311.131 174.833 310.636 175.47 309.78C177.338 307.304 180.491 301.798 176.723 296.462" stroke="#201F1F" stroke-width="2" stroke-linecap="round" stroke-linejoin="round"/>
<path d="M162.141 313.845C162.141 313.845 171.802 305.153 176.32 296.259C177.226 294.503 177.919 292.736 178.299 291.036C180.044 283.234 180.48 276.704 175.448 275.072C175.437 275.072 175.414 275.06 175.403 275.06" stroke="#201F1F" stroke-width="2" stroke-linecap="round" stroke-linejoin="round"/>
<path d="M172.439 290.236C172.439 290.236 173.86 291.666 174.027 293.58" stroke="#201F1F" stroke-width="2" stroke-linecap="round" stroke-linejoin="round"/>
<path d="M173.703 305.716L174.027 307.146" stroke="#201F1F" stroke-width="2" stroke-linecap="round" stroke-linejoin="round"/>
<path d="M154.212 299.963L159.256 287.343L199.455 186.819L204.61 173.905" stroke="#201F1F" stroke-width="2" stroke-linecap="round" stroke-linejoin="round"/>
<path d="M171.959 284.326L175.448 275.071L207.473 189.993L212.159 177.553L212.215 177.418" stroke="#201F1F" stroke-width="2" stroke-linecap="round" stroke-linejoin="round"/>
<path d="M204.712 173.928C204.421 174.829 205.83 176.202 207.91 177.001C209.442 177.598 210.907 177.711 211.723 177.384C212.025 177.26 212.226 177.069 212.327 176.833C212.673 175.932 211.242 174.547 209.151 173.737C207.049 172.926 205.07 172.994 204.723 173.894C204.723 173.905 204.712 173.917 204.712 173.928Z" stroke="#201F1F" stroke-width="2" stroke-linecap="round" stroke-linejoin="round"/>
<path d="M199.455 186.818C199.109 187.719 200.64 189.149 202.866 190.005C205.024 190.838 207.059 190.826 207.473 189.993C207.495 189.971 207.506 189.948 207.517 189.926" stroke="#201F1F" stroke-width="2" stroke-linecap="round" stroke-linejoin="round"/>
<circle cx="235.928" cy="142.826" r="4.28985" stroke="#201F1F" stroke-width="2"/>
<path d="M234.87 158.167L280.362 119.551" stroke="#201F1F" stroke-width="2"/>
</svg>
