<svg width="71" height="72" viewBox="0 0 71 72" fill="none" xmlns="http://www.w3.org/2000/svg">
<path d="M68.8637 37.1232L70.863 37.1785C70.8721 36.8492 70.8767 36.5188 70.8767 36.1874C70.8767 35.8559 70.8721 35.5255 70.863 35.1962L68.8637 35.2514C68.8723 35.5623 68.8767 35.8743 68.8767 36.1874C68.8767 36.5004 68.8723 36.8124 68.8637 37.1232Z" fill="white"/>
<path d="M68.4118 30.6138L70.3839 30.281C70.2738 29.6282 70.1457 28.9815 70.0001 28.3415L68.0499 28.7849C68.1871 29.3884 68.3079 29.9982 68.4118 30.6138Z" fill="white"/>
<path d="M66.6997 24.3286L68.5681 23.615C68.3323 22.9977 68.0796 22.3887 67.8107 21.7886L65.9856 22.6066C66.2392 23.1724 66.4774 23.7466 66.6997 24.3286Z" fill="white"/>
<path d="M63.7864 18.5004L65.4788 17.4347C65.1272 16.8764 64.7604 16.3285 64.3789 15.7919L62.7488 16.9506C63.1087 17.4569 63.4547 17.9737 63.7864 18.5004Z" fill="white"/>
<path d="M59.7904 13.3498L61.2435 11.9755C60.7906 11.4966 60.3244 11.0304 59.8455 10.5775L58.4712 12.0306C58.9231 12.458 59.363 12.8979 59.7904 13.3498Z" fill="white"/>
<path d="M54.8704 9.07219L56.0291 7.44205C55.4925 7.06057 54.9446 6.69375 54.3863 6.34216L53.3206 8.03461C53.8473 8.36626 54.3641 8.7123 54.8704 9.07219Z" fill="white"/>
<path d="M49.2144 5.83539L50.0324 4.0103C49.4323 3.74136 48.8233 3.48872 48.206 3.25293L47.4924 5.12127C48.0744 5.34358 48.6486 5.5818 49.2144 5.83539Z" fill="white"/>
<path d="M43.0361 3.77108L43.4795 1.82085C42.8394 1.67533 42.1928 1.54723 41.54 1.43709L41.2072 3.40921C41.8228 3.51309 42.4326 3.63388 43.0361 3.77108Z" fill="white"/>
<path d="M36.5695 2.95724L36.6247 0.958003C36.2955 0.948912 35.9651 0.944336 35.6336 0.944336C35.3022 0.944336 34.9718 0.948912 34.6425 0.958003L34.6977 2.95724C35.0086 2.94866 35.3206 2.94434 35.6336 2.94434C35.9467 2.94434 36.2587 2.94866 36.5695 2.95724Z" fill="white"/>
<path d="M30.0601 3.40921L29.7273 1.43709C29.0745 1.54723 28.4278 1.67533 27.7878 1.82085L28.2311 3.77108C28.8346 3.63388 29.4445 3.51309 30.0601 3.40921Z" fill="white"/>
<path d="M23.7749 5.12128L23.0613 3.25293C22.444 3.48872 21.835 3.74136 21.2349 4.0103L22.0529 5.83539C22.6187 5.5818 23.1929 5.34358 23.7749 5.12128Z" fill="white"/>
<path d="M17.9467 8.03461L16.881 6.34216C16.3226 6.69375 15.7748 7.06057 15.2381 7.44205L16.3969 9.07219C16.9032 8.7123 17.42 8.36626 17.9467 8.03461Z" fill="white"/>
<path d="M12.796 12.0306L11.4218 10.5775C10.9429 11.0304 10.4767 11.4966 10.0238 11.9755L11.4769 13.3498C11.9043 12.8979 12.3442 12.458 12.796 12.0306Z" fill="white"/>
<path d="M8.51848 16.9506L6.88834 15.7918C6.50686 16.3285 6.14004 16.8764 5.78845 17.4347L7.4809 18.5004C7.81255 17.9737 8.15859 17.4569 8.51848 16.9506Z" fill="white"/>
<path d="M5.28168 22.6066L3.45659 21.7886C3.18765 22.3887 2.93501 22.9977 2.69922 23.615L4.56756 24.3286C4.78987 23.7466 5.02809 23.1724 5.28168 22.6066Z" fill="white"/>
<path d="M3.21737 28.7849L1.26713 28.3415C1.12162 28.9815 0.993522 29.6282 0.883376 30.281L2.8555 30.6138C2.95937 29.9982 3.08016 29.3884 3.21737 28.7849Z" fill="white"/>
<path d="M0.390625 36.1874C0.390625 35.8559 0.395201 35.5255 0.404292 35.1962L2.40353 35.2515C2.39495 35.5623 2.39062 35.8743 2.39062 36.1874C2.39062 36.5004 2.39495 36.8124 2.40353 37.1233L0.404292 37.1785C0.395201 36.8492 0.390625 36.5188 0.390625 36.1874Z" fill="white"/>
<path d="M2.8555 41.7609L0.883376 42.0937C0.993523 42.7465 1.12162 43.3932 1.26713 44.0332L3.21737 43.5898C3.08016 42.9863 2.95937 42.3765 2.8555 41.7609Z" fill="white"/>
<path d="M4.56756 48.0461L2.69922 48.7597C2.93501 49.377 3.18765 49.986 3.45659 50.5861L5.28168 49.7681C5.02809 49.2023 4.78987 48.6281 4.56756 48.0461Z" fill="white"/>
<path d="M7.4809 53.8743L5.78845 54.94C6.14004 55.4983 6.50686 56.0462 6.88834 56.5829L8.51848 55.4241C8.15859 54.9178 7.81255 54.401 7.4809 53.8743Z" fill="white"/>
<path d="M11.4769 59.0249L10.0238 60.3992C10.4767 60.8781 10.9429 61.3443 11.4218 61.7972L12.796 60.3441C12.3442 59.9167 11.9043 59.4768 11.4769 59.0249Z" fill="white"/>
<path d="M16.3969 63.3025L15.2381 64.9327C15.7748 65.3141 16.3226 65.681 16.881 66.0325L17.9467 64.3401C17.42 64.0084 16.9032 63.6624 16.3969 63.3025Z" fill="white"/>
<path d="M22.0529 66.5393L21.2349 68.3644C21.835 68.6333 22.444 68.886 23.0613 69.1218L23.7749 67.2534C23.1929 67.0311 22.6187 66.7929 22.0529 66.5393Z" fill="white"/>
<path d="M28.2311 68.6036L27.7878 70.5539C28.4278 70.6994 29.0745 70.8275 29.7273 70.9376L30.0601 68.9655C29.4445 68.8616 28.8346 68.7408 28.2311 68.6036Z" fill="white"/>
<path d="M34.6977 69.4175L34.6425 71.4167C34.9718 71.4258 35.3022 71.4304 35.6336 71.4304C35.9651 71.4304 36.2955 71.4258 36.6247 71.4167L36.5695 69.4175C36.2587 69.426 35.9467 69.4304 35.6336 69.4304C35.3206 69.4304 35.0086 69.426 34.6977 69.4175Z" fill="white"/>
<path d="M41.2072 68.9655L41.54 70.9376C42.1928 70.8275 42.8394 70.6994 43.4795 70.5539L43.0361 68.6036C42.4326 68.7408 41.8228 68.8616 41.2072 68.9655Z" fill="white"/>
<path d="M47.4924 67.2534L48.206 69.1218C48.8233 68.886 49.4323 68.6333 50.0324 68.3644L49.2144 66.5393C48.6486 66.7929 48.0744 67.0311 47.4924 67.2534Z" fill="white"/>
<path d="M53.3206 64.3401L54.3863 66.0325C54.9446 65.681 55.4925 65.3141 56.0291 64.9327L54.8704 63.3025C54.3641 63.6624 53.8473 64.0084 53.3206 64.3401Z" fill="white"/>
<path d="M58.4712 60.3441L59.8455 61.7972C60.3244 61.3443 60.7906 60.8781 61.2435 60.3992L59.7904 59.0249C59.363 59.4768 58.9231 59.9167 58.4712 60.3441Z" fill="white"/>
<path d="M62.7488 55.4241L64.3789 56.5829C64.7604 56.0462 65.1273 55.4983 65.4788 54.94L63.7864 53.8743C63.4547 54.401 63.1087 54.9178 62.7488 55.4241Z" fill="white"/>
<path d="M65.9856 49.7681L67.8107 50.5861C68.0796 49.986 68.3323 49.377 68.5681 48.7597L66.6997 48.0461C66.4774 48.6281 66.2392 49.2023 65.9856 49.7681Z" fill="white"/>
<path d="M68.0499 43.5898L70.0001 44.0332C70.1457 43.3932 70.2738 42.7465 70.3839 42.0937L68.4118 41.7609C68.3079 42.3765 68.1871 42.9863 68.0499 43.5898Z" fill="white"/>
<path d="M35.6369 40.4338H33.4962C33.4962 38.2931 33.6491 37.2992 34.1843 35.9612C34.8341 34.4321 36.0956 33.2853 37.4335 32.1385L37.4439 32.1295C39.237 30.5653 40.9886 29.0373 40.9886 26.5192C40.9886 23.6139 39.3067 21.6644 35.3311 21.6644C31.6231 21.6644 29.0236 23.1552 28.7178 28.1629H26.5389C26.6918 22.1613 30.2087 19.6001 35.2546 19.6001C40.3006 19.6001 43.2823 22.0466 43.2823 26.4809C43.2823 29.3097 41.715 31.2211 39.4596 33.1324L39.4359 33.1522C38.0324 34.3281 36.8945 35.2814 36.2103 36.764C35.7133 37.7961 35.6751 38.6753 35.6369 40.4338Z" fill="white"/>
<path d="M36.0956 47.4293H33.0757V44.4476H36.0956V47.4293Z" fill="white"/>
</svg>
